<?xml version="1.0" standalone="no"?>
<!DOCTYPE svg PUBLIC "-//W3C//DTD SVG 20010904//EN"
 "http://www.w3.org/TR/2001/REC-SVG-20010904/DTD/svg10.dtd">
<svg version="1.0" xmlns="http://www.w3.org/2000/svg"
 width="1024.000000pt" height="1024.000000pt" viewBox="0 0 1024.000000 1024.000000"
 preserveAspectRatio="xMidYMid meet">
<metadata>
Created by potrace 1.16, written by Peter Selinger 2001-2019
</metadata>
<g transform="translate(0.000000,1024.000000) scale(0.100000,-0.100000)"
fill="#000000" stroke="none">
<path d="M0 5120 l0 -5120 5120 0 5120 0 0 5120 0 5120 -5120 0 -5120 0 0
-5120z m5272 3669 c-35 -16 -116 -54 -181 -84 l-117 -55 -115 1 c-63 0 -134 4
-159 7 l-45 7 55 24 c30 13 82 32 115 41 33 10 92 30 130 45 69 27 171 41 320
43 l60 1 -63 -30z m-546 12 c-3 -5 -32 -19 -63 -31 -95 -38 -183 -84 -283
-150 -332 -218 -605 -517 -817 -895 -51 -92 -159 -320 -184 -387 l-13 -38
-123 0 c-104 0 -123 2 -123 15 0 32 111 291 170 398 207 370 526 721 793 870
36 21 89 53 119 72 61 41 232 110 310 126 29 6 69 15 88 19 48 11 132 12 126
1z m1369 -76 c284 -72 511 -203 739 -425 181 -176 273 -296 430 -558 63 -105
185 -349 201 -399 l6 -23 -170 0 c-128 0 -171 3 -171 12 0 17 -91 174 -161
278 -175 261 -335 425 -529 542 -279 168 -596 204 -901 103 -90 -30 -312 -161
-412 -242 -168 -138 -359 -376 -492 -614 l-49 -86 -155 -6 c-246 -11 -321 -9
-321 6 0 31 105 269 166 376 144 253 273 421 466 606 127 122 203 178 388 284
152 87 286 131 475 155 72 9 144 18 160 20 72 10 234 -4 330 -29z m-2120 -55
c-3 -5 -58 -47 -122 -92 -64 -46 -167 -132 -229 -191 l-112 -108 -71 17 -71
16 47 39 c145 120 486 321 556 328 5 1 5 -3 2 -9z m841 -113 c-17 -12 -68 -51
-115 -86 -47 -35 -106 -83 -131 -107 l-46 -44 -99 0 c-55 0 -131 -7 -170 -16
-129 -29 -128 -32 -30 61 50 47 133 115 184 150 l95 65 170 -1 171 0 -29 -22z
m-1409 -341 c21 -11 21 -12 -33 -81 -30 -38 -78 -104 -106 -145 -28 -41 -52
-77 -54 -79 -5 -6 -154 33 -154 41 0 12 126 166 189 231 54 56 57 58 96 51 22
-3 50 -11 62 -18z m988 -56 c-35 -44 -97 -128 -136 -187 -39 -60 -75 -112 -79
-116 -4 -5 -77 -26 -162 -47 -84 -21 -182 -50 -218 -64 -35 -14 -67 -26 -72
-26 -20 0 87 184 167 289 83 108 92 115 159 146 39 18 96 38 126 45 47 12 210
35 262 39 12 1 -2 -24 -47 -79z m1663 -59 c131 -26 229 -67 357 -153 187 -125
343 -290 463 -492 90 -150 95 -136 -52 -136 l-127 0 -17 31 c-37 67 -131 208
-180 269 -103 129 -302 282 -443 341 -148 61 -338 90 -467 71 -34 -5 -65 -6
-67 -2 -2 4 24 18 58 32 142 58 306 72 475 39z m-2983 -276 c22 -8 48 -15 58
-15 9 0 17 -2 17 -3 0 -2 -26 -60 -58 -128 -32 -68 -73 -160 -91 -204 -17 -44
-35 -86 -39 -92 -6 -10 -30 -4 -98 23 -49 20 -90 37 -92 39 -4 4 166 333 190
368 22 31 51 34 113 12z m952 -236 c-25 -52 -62 -138 -83 -191 l-37 -98 -184
0 c-154 0 -183 2 -183 15 0 8 21 61 47 119 l46 104 76 36 c119 55 179 76 271
96 47 9 86 16 88 15 2 -2 -17 -45 -41 -96z m-661 -499 c138 -14 269 -50 349
-95 135 -75 273 -231 326 -369 53 -138 61 -210 66 -572 5 -318 4 -347 -16
-444 -36 -176 -112 -327 -219 -437 -106 -108 -220 -171 -375 -206 -87 -19
-127 -21 -734 -24 l-643 -4 0 1080 0 1081 574 0 c317 0 618 -5 672 -10z m4309
-13 c201 -44 323 -116 441 -256 100 -121 159 -271 184 -471 13 -111 13 -535
-1 -658 -36 -325 -190 -541 -477 -673 -37 -17 -110 -40 -162 -51 -89 -20 -133
-21 -697 -25 l-603 -4 0 1081 0 1081 623 -4 c515 -3 634 -7 692 -20z m-2355
-31 c170 -43 278 -115 360 -241 54 -84 63 -130 58 -293 -4 -127 -7 -143 -38
-217 -29 -68 -46 -92 -113 -158 -49 -48 -108 -93 -153 -118 -41 -23 -74 -45
-74 -51 0 -6 38 -54 84 -107 138 -158 173 -194 185 -186 27 16 68 100 112 230
l47 140 187 3 c174 2 186 1 181 -15 -2 -10 -18 -70 -35 -133 -61 -233 -89
-297 -183 -428 -33 -46 -58 -88 -55 -95 3 -7 83 -97 179 -201 95 -104 181
-199 191 -212 l19 -24 -257 0 c-144 0 -264 4 -274 10 -10 5 -44 42 -76 82 -32
40 -61 77 -66 82 -4 4 -67 -21 -141 -57 -199 -97 -315 -122 -533 -115 -156 5
-208 19 -347 90 -192 99 -303 271 -315 488 -13 229 109 468 296 579 38 22 81
45 95 51 l26 9 -65 95 c-86 128 -108 199 -103 338 3 91 7 111 35 170 43 92 75
132 149 184 71 51 111 69 208 94 89 24 332 27 416 6z m-2389 -2333 c12 -13 91
-254 85 -260 -7 -7 -40 6 -172 67 l-101 47 -27 69 c-16 38 -31 75 -34 82 -4
11 18 13 118 8 68 -2 126 -9 131 -13z m411 5 c8 -7 41 -69 73 -138 135 -290
228 -437 426 -670 131 -154 213 -236 350 -348 95 -78 285 -204 372 -246 77
-37 74 -50 -10 -43 -77 6 -224 52 -328 102 -96 46 -252 153 -379 258 -98 81
-301 295 -380 399 -63 83 -217 338 -251 415 -87 199 -115 266 -115 274 0 14
224 11 242 -3z m594 -35 c10 -27 39 -104 66 -172 26 -68 47 -125 46 -126 -11
-8 -231 -85 -245 -87 -63 -5 -71 0 -115 75 -44 76 -158 323 -158 345 0 9 45
12 194 12 l194 0 18 -47z m701 -77 c103 -191 174 -287 333 -446 157 -158 223
-205 421 -299 181 -87 333 -122 534 -123 156 -2 283 29 440 106 152 75 269
160 410 301 137 137 218 247 325 443 l75 137 134 -2 c74 -1 136 -5 139 -8 9
-9 -16 -72 -97 -240 -205 -424 -441 -703 -811 -957 -239 -165 -462 -234 -770
-237 -156 -2 -246 11 -375 56 -174 60 -361 165 -514 287 -166 133 -405 400
-507 566 -32 52 -79 130 -105 173 -40 66 -71 132 -156 335 l-13 32 236 -2 237
-3 64 -119z m2338 102 c-14 -47 -99 -192 -158 -271 -75 -99 -221 -246 -314
-316 -97 -73 -270 -157 -388 -188 -126 -34 -306 -38 -425 -10 -112 26 -192 55
-220 78 l-25 21 25 -6 c92 -21 166 -28 268 -24 142 6 252 33 379 93 242 114
425 289 568 544 l56 101 120 0 c120 0 120 0 114 -22z m-4025 -337 c150 -54
131 -38 258 -217 35 -49 86 -117 114 -152 28 -35 49 -64 47 -66 -10 -10 -146
28 -213 58 -84 38 -116 68 -206 192 -52 71 -148 234 -138 234 2 0 64 -22 138
-49z m1226 -211 c29 -47 84 -122 123 -168 39 -46 71 -87 71 -91 0 -4 -33 -18
-74 -31 -92 -29 -200 -25 -256 8 -45 27 -250 284 -250 314 0 4 12 8 28 8 15 0
43 5 63 10 43 12 209 38 228 36 8 0 38 -39 67 -86z m-764 -349 l77 -7 88 -84
c119 -115 224 -202 308 -257 127 -83 145 -96 142 -99 -2 -2 -29 3 -61 11 -193
50 -457 212 -671 410 l-50 46 45 -6 c25 -4 80 -10 122 -14z m1153 -127 c69
-69 125 -127 125 -128 0 -9 -163 -76 -184 -76 -15 0 -53 22 -93 51 -96 73
-243 199 -243 208 0 5 19 13 43 19 23 6 74 20 112 31 39 11 80 20 93 20 16 1
58 -35 147 -125z m272 -228 c37 -24 120 -73 183 -110 63 -36 126 -75 140 -86
l25 -20 -95 6 c-111 7 -235 45 -404 122 l-109 50 33 17 c25 13 143 61 157 65
1 0 33 -20 70 -44z m3153 -652 c86 -41 128 -114 132 -234 l3 -65 -75 -6 c-41
-4 -93 -8 -115 -10 -39 -4 -39 -4 -48 38 -13 65 -19 67 -211 71 -249 6 -287
-8 -294 -104 -3 -50 0 -64 20 -94 21 -31 32 -36 88 -47 36 -7 121 -12 190 -13
128 -1 242 -12 309 -30 104 -28 156 -105 171 -256 18 -180 -11 -320 -80 -377
-16 -14 -56 -36 -87 -48 -55 -22 -71 -23 -343 -23 -238 -1 -294 2 -341 16
-149 44 -189 100 -189 265 l0 94 78 -6 c155 -12 162 -13 162 -41 0 -79 42 -94
267 -94 191 0 244 8 268 43 16 22 20 99 9 156 -10 47 -40 57 -194 65 -233 12
-355 25 -423 46 -64 20 -68 23 -114 92 l-48 71 -3 142 c-2 84 1 158 7 183 17
62 69 123 131 154 74 37 154 44 445 38 218 -5 244 -7 285 -26z m-5000 4 c83
-26 125 -55 166 -114 l39 -56 0 -202 c0 -199 0 -202 -28 -261 -33 -70 -59
-100 -108 -125 -80 -42 -146 -50 -388 -50 l-231 0 0 -200 0 -200 -140 0 -140
0 0 616 0 616 393 -5 c299 -3 403 -8 437 -19z m873 -203 c193 -308 296 -477
329 -542 16 -32 24 -28 21 10 -1 17 -4 195 -6 395 l-4 362 143 0 144 0 0 -615
0 -615 -153 0 c-146 0 -154 1 -174 23 -36 38 -325 508 -465 757 l-60 105 6
-150 c3 -82 6 -280 7 -440 l1 -290 -140 -3 -140 -3 -4 608 c-2 335 -2 611 0
616 2 4 83 6 180 5 l177 -3 138 -220z m1797 100 l0 -125 -340 0 -340 0 0 -120
0 -120 300 0 300 0 0 -115 0 -115 -300 0 -300 0 0 -124 0 -123 83 -6 c45 -4
196 -7 334 -7 l253 0 5 -22 c3 -13 5 -68 3 -123 l-3 -100 -477 -3 -478 -2 0
615 0 615 480 0 480 0 0 -125z m442 -287 c3 -385 4 -416 23 -463 18 -44 27
-53 80 -80 56 -28 67 -30 170 -30 153 1 199 25 247 130 23 49 23 58 26 453 l3
402 135 0 134 0 0 -475 c0 -455 -1 -478 -21 -537 -37 -112 -104 -170 -229
-203 -55 -14 -103 -16 -315 -12 -254 4 -294 10 -371 50 -44 23 -101 87 -123
137 -35 79 -40 160 -41 606 l0 434 139 0 140 0 3 -412z"/>
<path d="M2640 6009 l0 -601 338 4 337 3 57 27 c78 36 130 93 164 181 l29 72
3 282 c3 301 -2 362 -41 447 -34 73 -79 120 -149 156 l-61 30 -339 0 -338 0 0
-601z"/>
<path d="M6876 6013 l1 -598 314 0 c279 0 319 2 361 18 94 36 153 101 197 217
24 62 25 76 29 334 3 230 1 280 -14 345 -31 137 -81 208 -179 253 -48 22 -60
23 -380 26 l-330 3 1 -598z"/>
<path d="M5049 6670 c-66 -17 -105 -47 -118 -91 -20 -67 4 -118 107 -226 l87
-92 48 13 c65 18 116 61 150 126 54 106 29 201 -64 248 -52 25 -154 36 -210
22z"/>
<path d="M4859 5830 c-106 -55 -158 -140 -159 -258 0 -169 103 -252 314 -252
135 0 357 63 338 95 -8 15 -335 377 -376 417 -35 35 -47 34 -117 -2z"/>
<path d="M2440 2410 l0 -171 221 3 221 3 24 28 c21 25 24 38 23 105 -1 124 -9
153 -49 176 -32 19 -55 21 -237 25 l-203 3 0 -172z"/>
</g>
</svg>
